<svg width="27" height="20" viewBox="0 0 27 20" fill="none" xmlns="http://www.w3.org/2000/svg">
<path d="M17 9.96937e-05C15.1311 -0.00824409 13.2973 0.507313 11.7065 1.48829C10.1157 2.46927 8.83168 3.87641 8.00003 5.5501C7.88068 5.78879 7.86104 6.06512 7.94544 6.3183C8.02983 6.57147 8.21134 6.78075 8.45003 6.9001C8.68873 7.01945 8.96505 7.03909 9.21823 6.95469C9.4714 6.8703 9.68068 6.68879 9.80003 6.4501C10.4322 5.17342 11.3939 4.08872 12.5856 3.30809C13.7773 2.52746 15.1559 2.07922 16.5788 2.00969C18.0017 1.94017 19.4174 2.25188 20.6795 2.91261C21.9417 3.57334 23.0045 4.55913 23.7581 5.7681C24.5118 6.97706 24.9289 8.36535 24.9664 9.78948C25.0039 11.2136 24.6605 12.6219 23.9715 13.8689C23.2826 15.1159 22.2732 16.1563 21.0476 16.8825C19.822 17.6088 18.4247 17.9946 17 18.0001C15.5089 18.0066 14.0462 17.5925 12.7797 16.8053C11.5133 16.0182 10.4944 14.89 9.84003 13.5501C9.72068 13.3114 9.5114 13.1299 9.25823 13.0455C9.00505 12.9611 8.72873 12.9808 8.49003 13.1001C8.25134 13.2194 8.06983 13.4287 7.98544 13.6819C7.90104 13.9351 7.92068 14.2114 8.04003 14.4501C8.83286 16.0456 10.0376 17.4003 11.5295 18.3741C13.0215 19.348 14.7465 19.9055 16.5262 19.9891C18.3058 20.0727 20.0755 19.6793 21.6522 18.8496C23.2288 18.0199 24.5552 16.7841 25.4941 15.2699C26.433 13.7558 26.9503 12.0182 26.9925 10.2371C27.0348 8.45597 26.6004 6.69589 25.7343 5.13893C24.8682 3.58197 23.6019 2.28467 22.0663 1.38121C20.5307 0.477745 18.7817 0.000936146 17 9.96937e-05Z" fill="#938C8C"/>
<path d="M3.40512 9.00567L5.70512 6.71567C5.79885 6.62271 5.87324 6.51211 5.92401 6.39025C5.97478 6.26839 6.00092 6.13768 6.00092 6.00567C6.00092 5.87366 5.97478 5.74296 5.92401 5.6211C5.87324 5.49924 5.79885 5.38864 5.70512 5.29567C5.61215 5.20195 5.50155 5.12755 5.37969 5.07678C5.25784 5.02601 5.12713 4.99987 4.99512 4.99987C4.86311 4.99987 4.7324 5.02601 4.61054 5.07678C4.48868 5.12755 4.37808 5.20195 4.28512 5.29567L0.285118 9.29567C0.194077 9.39078 0.122712 9.50292 0.0751176 9.62567C-0.0249 9.86913 -0.0249 10.1422 0.0751175 10.3857C0.122712 10.5084 0.194077 10.6206 0.285118 10.7157L4.28512 14.7157C4.37836 14.8089 4.48905 14.8829 4.61087 14.9333C4.73269 14.9838 4.86326 15.0098 4.99512 15.0098C5.12698 15.0098 5.25754 14.9838 5.37937 14.9333C5.50119 14.8829 5.61188 14.8089 5.70512 14.7157C5.79836 14.6224 5.87232 14.5117 5.92278 14.3899C5.97324 14.2681 5.99921 14.1375 5.99921 14.0057C5.99921 13.8738 5.97324 13.7432 5.92278 13.6214C5.87232 13.4996 5.79836 13.3889 5.70512 13.2957L3.40512 11.0057L12.9951 11.0057C13.2603 11.0057 13.5147 10.9003 13.7022 10.7128C13.8898 10.5252 13.9951 10.2709 13.9951 10.0057C13.9951 9.74046 13.8898 9.4861 13.7022 9.29857C13.5147 9.11103 13.2603 9.00567 12.9951 9.00567L3.40512 9.00567Z" fill="#938C8C"/>
</svg>
