<svg width="19" height="16" viewBox="0 0 19 16" fill="none" xmlns="http://www.w3.org/2000/svg">
<path d="M18.3745 9.70822C18.3733 11.3759 17.7106 12.975 16.5318 14.1546C15.3529 15.3342 13.7542 15.9979 12.0865 16H0.765889C0.562763 16 0.367956 15.9193 0.224324 15.7757C0.0806918 15.632 0 15.4372 0 15.2341C0 15.031 0.0806918 14.8362 0.224324 14.6925C0.367956 14.5489 0.562763 14.4682 0.765889 14.4682H12.0865C13.341 14.457 14.5402 13.9507 15.4233 13.0597C16.3064 12.1686 16.8019 10.9649 16.8019 9.71033C16.8019 8.4558 16.3064 7.25203 15.4233 6.36098C14.5402 5.46992 13.341 4.96369 12.0865 4.95243H2.90349L5.40986 7.01306C5.48805 7.07676 5.55289 7.15529 5.60065 7.24412C5.64841 7.33295 5.67816 7.43034 5.68818 7.5307C5.6982 7.63105 5.68831 7.7324 5.65906 7.82892C5.62981 7.92545 5.58178 8.01524 5.51774 8.09316C5.45369 8.17107 5.37489 8.23556 5.28585 8.28294C5.19681 8.33032 5.0993 8.35964 4.9989 8.36923C4.8985 8.37882 4.79719 8.36848 4.7008 8.33882C4.6044 8.30915 4.51481 8.26074 4.43718 8.19635L0.27955 4.77781C0.270359 4.77015 0.263466 4.76096 0.254658 4.75292C0.234721 4.73483 0.215801 4.71565 0.197982 4.69548L0.191855 4.68973C0.186494 4.6836 0.179601 4.67901 0.17424 4.67288V4.67058C0.166198 4.66101 0.160454 4.6499 0.153178 4.63995C0.138115 4.61993 0.124179 4.59909 0.111437 4.57753C0.108373 4.57255 0.104161 4.56795 0.10148 4.56259C0.0987998 4.55723 0.0919067 4.54996 0.0884602 4.54306C0.0850137 4.53617 0.0804184 4.52238 0.075823 4.51243C0.0656148 4.49013 0.056415 4.46739 0.0482512 4.44426L0.0455706 4.43737C0.0297617 4.3936 0.0185951 4.34829 0.0122544 4.30219C0.00995677 4.28802 0.00536147 4.27462 0.00421263 4.26045C0.0030638 4.24628 0.00421263 4.23326 0.00421263 4.21986C0.00421263 4.20645 0.000765834 4.19803 0.000765834 4.18654C0.000765834 4.17505 0.00382969 4.16433 0.00421263 4.15284V4.11263C0.00421263 4.09923 0.00995677 4.08468 0.0122544 4.07051C0.0185728 4.0244 0.02974 3.97909 0.0455706 3.93533L0.0482512 3.92844C0.056676 3.90508 0.0654835 3.88248 0.075823 3.86027C0.0804184 3.85032 0.083099 3.83959 0.0884602 3.82964C0.0938214 3.81968 0.097651 3.817 0.10148 3.81011C0.10531 3.80321 0.108373 3.80015 0.111437 3.79517C0.123931 3.77362 0.13761 3.75279 0.152412 3.73275C0.159688 3.7228 0.165432 3.71169 0.173474 3.70212V3.7002C0.181133 3.69063 0.190706 3.68412 0.198748 3.67493C0.216364 3.65578 0.234362 3.63663 0.253892 3.61978C0.2627 3.61174 0.269593 3.60255 0.278784 3.59489L0.282613 3.59145L4.43871 0.176346C4.51635 0.111964 4.60593 0.0635502 4.70233 0.0338832C4.79872 0.00421619 4.90003 -0.00611947 5.00043 0.00346931C5.10083 0.0130581 5.19835 0.0423823 5.28738 0.0897591C5.37642 0.137136 5.45522 0.201632 5.51927 0.279545C5.58331 0.357458 5.63134 0.447253 5.66059 0.543775C5.68984 0.640298 5.69973 0.741648 5.68971 0.842005C5.67969 0.942363 5.64994 1.03975 5.60218 1.12858C5.55442 1.21741 5.48958 1.29594 5.41139 1.35964L2.90502 3.42065H12.088C13.7548 3.42288 15.3527 4.08607 16.5311 5.26477C17.7096 6.44347 18.3725 8.04144 18.3745 9.70822Z" fill="#938C8C"/>
</svg>
